<?xml version="1.0" standalone="no"?>
<!DOCTYPE svg PUBLIC "-//W3C//DTD SVG 20010904//EN"
 "http://www.w3.org/TR/2001/REC-SVG-20010904/DTD/svg10.dtd">
<svg version="1.0" xmlns="http://www.w3.org/2000/svg"
 width="321.000000pt" height="285.000000pt" viewBox="0 0 321.000000 285.000000"
 preserveAspectRatio="xMidYMid meet">

<g transform="translate(0.000000,285.000000) scale(0.100000,-0.100000)"
fill="#000000" stroke="none">
<path d="M1127 2363 c-4 -3 -7 -444 -7 -979 l0 -974 -187 -2 c-180 -3 -188 -4
-188 -23 0 -20 7 -20 425 -20 418 0 425 0 425 20 0 19 -8 20 -212 23 l-213 2
0 955 0 955 335 0 335 0 0 -218 0 -218 -32 -15 c-96 -43 -101 -175 -8 -237
113 -76 254 74 177 189 -12 19 -37 40 -55 48 l-32 14 -2 241 -3 241 -376 3
c-206 1 -378 -1 -382 -5z m794 -552 c39 -40 39 -82 0 -122 -18 -17 -40 -29
-56 -29 -38 0 -85 50 -85 90 0 40 47 90 85 90 16 0 38 -12 56 -29z"/>
</g>
</svg>
